<?xml version="1.0" encoding="utf-8"?>
<!-- Generator: Adobe Illustrator 18.1.1, SVG Export Plug-In . SVG Version: 6.00 Build 0)  -->
<svg version="1.1" id="Layer_1" xmlns="http://www.w3.org/2000/svg" xmlns:xlink="http://www.w3.org/1999/xlink" x="0px" y="0px"
	 viewBox="-269 519 100 100" enable-background="new -269 519 100 100" xml:space="preserve">
<path d="M-262.2,536.9v1.8c2.8,0.2,4.8,1.3,6.2,3.4c1.3,2.1,3.6,7.7,6.9,16.9l8,22.3l7.1,19.7h1.4l14.6-40.2l11,29.3l4.2,10.9h1.5
	l6-17.2l3.8-10.9l10-28.4c0.8-2.2,2-3.8,3.6-4.7c0.9-0.5,2.2-0.9,3.9-1.2v-1.8h-18.9v1.8c1.9,0.1,3.3,0.3,4.2,0.7
	c1.7,0.7,2.5,1.9,2.5,3.7c0,0.5-0.1,1.1-0.2,2c-0.2,1.4-0.7,3.1-1.4,4.9l-11.9,32.3l-13.8-35.7c-0.5-1.3-0.8-2.2-0.9-2.6
	c-0.1-0.4-0.2-0.9-0.2-1.5c0-1.6,0.7-2.7,2.1-3.3c0.9-0.3,2.5-0.5,4.9-0.5v-1.8H-233v1.8c2,0,3.5,0.3,4.5,0.7
	c1.7,0.7,2.9,2.1,3.8,4.2l4.5,11.7l-10.1,26.7l-13.8-35.8c-0.3-0.9-0.6-1.7-0.8-2.3c-0.2-0.6-0.3-1.2-0.3-1.8c0-1.4,0.7-2.4,2.1-2.9
	c0.8-0.3,2.2-0.4,4-0.5v-1.8H-262.2z"/>
</svg>
